<svg width="24" height="24" viewBox="0 0 24 24" fill="none" xmlns="http://www.w3.org/2000/svg">
<path d="M12 24C5.3724 24 0 18.6276 0 12C0 5.3724 5.3724 0 12 0C18.6276 0 24 5.3724 24 12C24 18.6276 18.6276 24 12 24ZM12 21.6C14.5461 21.6 16.9879 20.5886 18.7882 18.7882C20.5886 16.9879 21.6 14.5461 21.6 12C21.6 9.45392 20.5886 7.01212 18.7882 5.21178C16.9879 3.41143 14.5461 2.4 12 2.4C9.45392 2.4 7.01212 3.41143 5.21178 5.21178C3.41143 7.01212 2.4 9.45392 2.4 12C2.4 14.5461 3.41143 16.9879 5.21178 18.7882C7.01212 20.5886 9.45392 21.6 12 21.6ZM9.66 10.8H15.6V13.2H9.66C9.76395 13.7104 9.99901 14.1849 10.342 14.5769C10.685 14.9689 11.1242 15.2648 11.6163 15.4355C12.1084 15.6063 12.6365 15.6459 13.1486 15.5506C13.6606 15.4553 14.1391 15.2283 14.5368 14.892L16.5768 16.2516C15.8758 17.0147 14.9701 17.56 13.9676 17.8225C12.9652 18.0849 11.9085 18.0534 10.9235 17.7317C9.93845 17.4099 9.06681 16.8116 8.41255 16.0081C7.75828 15.2046 7.34902 14.2298 7.2336 13.2H6V10.8H7.2324C7.34742 9.76973 7.75658 8.79434 8.411 7.99032C9.06541 7.18631 9.93743 6.58767 10.9229 6.26588C11.9084 5.9441 12.9656 5.91278 13.9684 6.17567C14.9712 6.43855 15.8771 6.98453 16.578 7.7484L14.5368 9.108C14.1391 8.77166 13.6606 8.54468 13.1486 8.44937C12.6365 8.35407 12.1084 8.39374 11.6163 8.56447C11.1242 8.7352 10.685 9.03112 10.342 9.42309C9.99901 9.81507 9.76395 10.2896 9.66 10.8Z" fill="white"/>
</svg>
