<svg width="24" height="22" viewBox="0 0 24 22" fill="none" xmlns="http://www.w3.org/2000/svg">
<path d="M1.2 0H22.8C23.1183 0 23.4235 0.128769 23.6485 0.357981C23.8736 0.587192 24 0.898069 24 1.22222V20.7778C24 21.1019 23.8736 21.4128 23.6485 21.642C23.4235 21.8712 23.1183 22 22.8 22H1.2C0.88174 22 0.576515 21.8712 0.351472 21.642C0.126428 21.4128 0 21.1019 0 20.7778V1.22222C0 0.898069 0.126428 0.587192 0.351472 0.357981C0.576515 0.128769 0.88174 0 1.2 0ZM21.6 5.17978L12.0864 13.8576L2.4 5.15289V19.5556H21.6V5.17978ZM3.0132 2.44444L12.0732 10.5869L21.0024 2.44444H3.0132Z" fill="white"/>
</svg>
