<svg width="26" height="24" viewBox="0 0 26 24" fill="none" xmlns="http://www.w3.org/2000/svg">
<path d="M22.1667 0C23.0949 0 23.9852 0.368749 24.6415 1.02513C25.2979 1.6815 25.6667 2.57174 25.6667 3.5V5.83333H23.3333V19.8333C23.3333 20.7616 22.9646 21.6518 22.3082 22.3082C21.6518 22.9646 20.7616 23.3333 19.8333 23.3333H3.5C2.57174 23.3333 1.6815 22.9646 1.02513 22.3082C0.368749 21.6518 0 20.7616 0 19.8333V17.5H18.6667V19.8333C18.6667 20.1191 18.7716 20.3949 18.9615 20.6084C19.1514 20.822 19.413 20.9584 19.6968 20.9918L19.8333 21C20.1191 21 20.3949 20.8951 20.6084 20.7052C20.822 20.5153 20.9584 20.2536 20.9918 19.9698L21 19.8333V2.33333H5.83333C5.54758 2.33337 5.27177 2.43828 5.05823 2.62817C4.84469 2.81805 4.70827 3.07971 4.67483 3.3635L4.66667 3.5V15.1667H2.33333V3.5C2.33333 2.57174 2.70208 1.6815 3.35846 1.02513C4.01484 0.368749 4.90508 0 5.83333 0H22.1667Z" fill="white"/>
</svg>
