<svg width="32" height="32" viewBox="0 0 32 32" fill="none" xmlns="http://www.w3.org/2000/svg">
<path d="M30.638 4.3543L16.15 9.67189L0.882515 4.13696L14.4232 0.233523C15.5573 -0.0939367 16.7648 -0.0765496 17.89 0.282787L30.638 4.3543ZM0 6.90442V23.7092C0 24.8567 0.686891 25.8956 1.75179 26.3593L14.6939 32V12.222L0 6.90442ZM8.35447 18.1916C9.33995 18.9016 10.7226 20.0608 10.6343 22.437C10.5166 25.2769 8.69277 25.1031 7.69258 24.9002C5.80989 24.5235 3.63302 22.2921 3.7801 19.4957C4.8097 19.8724 5.47159 20.1477 5.47159 20.1477C5.47159 20.1477 5.42746 23.0311 7.69258 23.4078C9.97241 23.7845 9.20757 20.7997 7.45725 19.4522C5.8246 18.1771 3.91248 16.7137 3.91248 14.8446C3.91248 11.8598 5.61868 11.8018 6.94245 11.8598C8.83985 11.9467 10.7226 13.5406 10.7226 16.989C9.97241 16.8007 9.11932 16.4239 9.11932 16.4239C9.11932 16.4239 8.97223 13.4246 6.94245 13.3522C5.57455 13.3087 5.42746 14.4679 5.42746 14.8446C5.42746 15.9603 7.58963 17.641 8.35447 18.1916ZM31.947 6.96238L17.6356 12.222V32C20.0345 30.9394 27.002 27.8372 30.2732 26.3825C31.3293 25.9116 32.0044 24.8756 32 23.7338L31.947 6.96238ZM28.1375 24.1468L26.4901 24.7843L24.931 16.5109L23.4602 25.8565L21.754 26.6534L19.6801 14.917L21.3274 14.3664L22.7542 23.3064L24.3133 13.3377L25.5929 12.9175L27.1962 21.3503L28.417 11.8453L29.8878 11.3382L28.1375 24.1468Z" fill="#10151E"/>
</svg>
