<svg width="19" height="27" viewBox="0 0 19 27" fill="none" xmlns="http://www.w3.org/2000/svg">
<path d="M9.22675 26.4326C8.81117 26.4326 8.42642 26.2129 8.21526 25.8552L6.9274 23.6769C4.28297 19.2065 1.78567 14.9844 0.932484 13.2718C0.312199 11.9998 0 10.6418 0 9.22675C0 4.13905 4.13905 0 9.22675 0C14.3144 0 18.4535 4.13905 18.4535 9.22675C18.4535 10.6409 18.1413 11.9986 17.5263 13.2624C17.519 13.2777 17.5107 13.293 17.5028 13.3079C16.6332 15.0434 14.1517 19.2385 11.5252 23.678L10.2382 25.8552C10.0271 26.2129 9.64233 26.4326 9.22675 26.4326Z" fill="white"/>
<path d="M9.22768 13.4155C6.7389 13.4155 4.71387 11.3908 4.71387 8.90199C4.71387 6.41322 6.7389 4.38818 9.22768 4.38818C11.7165 4.38818 13.7412 6.41322 13.7412 8.90199C13.7412 11.3908 11.7165 13.4155 9.22768 13.4155Z" fill="#1A1F28"/>
</svg>
