<svg width="32" height="32" viewBox="0 0 32 32" fill="none" xmlns="http://www.w3.org/2000/svg">
<path d="M15.0781 0C14.6877 0 14.3515 0.28315 14.2875 0.66875L13.8344 3.39688C13.0556 3.53075 12.3027 3.73772 11.5781 4.00625L9.81563 1.86875C9.56763 1.56635 9.13608 1.48758 8.79688 1.68438L7.20313 2.60625C6.86393 2.80145 6.71553 3.21333 6.85313 3.57813L7.82188 6.16563C7.22118 6.66623 6.66623 7.22118 6.16563 7.82188L3.57813 6.85313C3.21333 6.71553 2.80145 6.86393 2.60625 7.20313L1.68438 8.79688C1.48758 9.13608 1.56635 9.56763 1.86875 9.81563L4.00625 11.5781C3.73772 12.3027 3.53075 13.0556 3.39688 13.8344L0.66875 14.2875C0.28315 14.3531 0 14.6861 0 15.0781V16.9219C0 17.3123 0.28315 17.6485 0.66875 17.7125L3.39688 18.1656C3.53075 18.9444 3.73772 19.6973 4.00625 20.4219L1.86875 22.1844C1.56635 22.4324 1.48918 22.8639 1.68438 23.2031L2.60625 24.7969C2.80145 25.1361 3.21333 25.2845 3.57813 25.1469L6.16563 24.1781C6.66623 24.7788 7.22118 25.3338 7.82188 25.8344L6.85313 28.4219C6.71553 28.7883 6.86553 29.1986 7.20313 29.3938L8.79688 30.3156C9.13608 30.5108 9.56763 30.4321 9.81563 30.1313L11.575 27.9938C12.3004 28.2628 13.0546 28.4691 13.8344 28.6031L14.2875 31.3313C14.3531 31.7169 14.6861 32 15.0781 32H16.9219C17.3123 32 17.6485 31.7169 17.7125 31.3313L18.1656 28.6031C18.9444 28.4693 19.6973 28.2623 20.4219 27.9938L22.1844 30.1313C22.4324 30.4337 22.8639 30.5108 23.2031 30.3156L24.7969 29.3938C25.1361 29.1986 25.2845 28.7867 25.1469 28.4219L24.1781 25.8344C24.7788 25.3338 25.3338 24.7788 25.8344 24.1781L28.4219 25.1469C28.7883 25.2845 29.1986 25.1345 29.3938 24.7969L30.3156 23.2031C30.5108 22.8639 30.4321 22.4324 30.1313 22.1844L27.9938 20.425C28.2628 19.6996 28.4691 18.9454 28.6031 18.1656L31.3313 17.7125C31.7169 17.6469 32 17.3139 32 16.9219V15.0781C32 14.6877 31.7169 14.3515 31.3313 14.2875L28.6031 13.8344C28.4693 13.0556 28.2623 12.3027 27.9938 11.5781L30.1313 9.81563C30.4337 9.56763 30.5108 9.13608 30.3156 8.79688L29.3938 7.20313C29.1986 6.86393 28.7867 6.71553 28.4219 6.85313L25.8344 7.82188C25.3338 7.22118 24.7788 6.66623 24.1781 6.16563L25.1469 3.57813C25.2845 3.21173 25.1345 2.80145 24.7969 2.60625L23.2031 1.68438C22.8639 1.48918 22.4324 1.56795 22.1844 1.86875L20.425 4.00625C19.6996 3.73722 18.9454 3.53092 18.1656 3.39688L17.7125 0.66875C17.6469 0.28315 17.3139 0 16.9219 0H15.0781ZM14.4 6.54375V11.4781C13.4647 11.8088 12.6549 12.4211 12.0819 13.2309C11.5088 14.0406 11.2007 15.008 11.2 16C11.2001 16.2946 11.2273 16.5885 11.2813 16.8781L7.00625 19.3438C6.62117 18.3021 6.4 17.1792 6.4 16C6.4 11.2258 9.84858 7.30208 14.4 6.54375ZM17.6 6.54375C22.1514 7.30208 25.6 11.2258 25.6 16C25.6 17.1806 25.3766 18.3042 24.9906 19.3469L20.7156 16.875C20.7705 16.5865 20.7987 16.2936 20.8 16C20.7986 15.0085 20.4902 14.0418 19.9172 13.2327C19.3443 12.4236 18.5348 11.8117 17.6 11.4813V6.54375ZM19.1156 19.6438L23.4063 22.1219C21.6486 24.2496 18.9898 25.6 16 25.6C13.0102 25.6 10.3514 24.2496 8.59375 22.1219L12.8813 19.6469C13.7502 20.3905 14.8562 20.7995 16 20.8C17.1431 20.7979 18.2479 20.3879 19.1156 19.6438Z" fill="#10151E"/>
</svg>
