<svg width="30" height="29" viewBox="0 0 30 29" fill="none" xmlns="http://www.w3.org/2000/svg">
<path d="M20.9143 16.3134L17.7002 19.6287L26.7853 28.9999L29.9993 25.6846L20.9143 16.3134Z" fill="#10151E"/>
<path d="M23.3331 11.5457C26.2573 11.5457 28.6361 9.09198 28.6361 6.07564C28.6361 5.16918 28.3937 4.32523 28.0149 3.57506L23.924 7.7948L21.6665 5.46613L25.7573 1.24639C25.0301 0.855669 24.2119 0.605611 23.3331 0.605611C20.4089 0.605611 18.0301 3.05931 18.0301 6.07564C18.0301 6.71642 18.1513 7.32594 18.3483 7.88857L15.5453 10.7799L12.8484 7.99797L13.9241 6.88833L11.7878 4.68469L14.9999 1.37142C13.2271 -0.457139 10.3484 -0.457139 8.57567 1.37142L3.21209 6.90396L5.34843 9.1076H1.07575L0 10.2172L5.36358 15.7498L6.43933 14.6402V10.2172L8.57567 12.4209L9.65142 11.3112L12.3484 14.0931L1.1212 25.674L4.33329 28.9873L21.5755 11.2175C22.121 11.4206 22.7119 11.5457 23.3331 11.5457Z" fill="#10151E"/>
</svg>
